<svg width="1391" height="686" viewBox="0 0 1391 686" fill="none" xmlns="http://www.w3.org/2000/svg">
<g style="mix-blend-mode:overlay">
<path d="M537.07 76.1604C328.617 100.539 174 190.015 174 296.665C174 422.07 387.781 523.731 651.493 523.731C915.204 523.731 1128.99 422.07 1128.99 296.665C1128.99 186.564 964.2 94.7664 745.514 74" stroke="url(#paint0_angular_132_266)" stroke-width="1.70856" stroke-linecap="round"/>
</g>
<g style="mix-blend-mode:overlay">
<path d="M537.07 77.7595C328.617 102.138 174 191.615 174 298.264C174 423.669 387.781 525.33 651.493 525.33C915.204 525.33 1128.99 423.669 1128.99 298.264C1128.99 188.164 964.2 96.3655 745.514 75.5991" stroke="url(#paint1_angular_132_266)" stroke-width="1.70856" stroke-linecap="round"/>
</g>
<g style="mix-blend-mode:overlay">
<path d="M761.746 81.2799C972.303 104.946 1128.99 194.903 1128.99 302.263C1128.99 427.668 915.204 529.328 651.493 529.328C387.781 529.328 174 427.668 174 302.263C174 197.369 323.568 109.087 526.818 83.0148" stroke="url(#paint2_angular_132_266)" stroke-width="1.70856" stroke-linecap="round"/>
</g>
<g style="mix-blend-mode:overlay">
<path d="M510.587 91.6427C315.655 120.231 174 206.579 174 308.66C174 434.065 387.781 535.726 651.493 535.726C915.204 535.726 1128.99 434.065 1128.99 308.66C1128.99 203.27 977.999 114.65 773.279 89.0464" stroke="url(#paint3_angular_132_266)" stroke-width="1.70856" stroke-linecap="round"/>
</g>
<g style="mix-blend-mode:overlay">
<path d="M790.791 100.204C986.552 128.553 1128.99 215.094 1128.99 317.456C1128.99 442.861 915.204 544.522 651.493 544.522C387.781 544.522 174 442.861 174 317.456C174 218.458 307.228 134.257 493.074 103.186" stroke="url(#paint4_angular_132_266)" stroke-width="1.70856" stroke-linecap="round"/>
</g>
<g style="mix-blend-mode:overlay">
<path d="M528.796 4.14059C225.767 39.5798 1 169.652 1 324.689C1 506.991 311.774 654.776 695.134 654.776C1078.49 654.776 1389.27 506.991 1389.27 324.689C1389.27 164.636 1149.72 31.1882 831.814 1" stroke="url(#paint5_angular_132_266)" stroke-width="1.70856" stroke-linecap="round"/>
</g>
<g style="mix-blend-mode:overlay">
<path d="M528.796 6.46517C225.767 41.9044 1 171.977 1 327.014C1 509.316 311.774 657.101 695.134 657.101C1078.49 657.101 1389.27 509.316 1389.27 327.014C1389.27 166.96 1149.72 33.5128 831.814 3.32458" stroke="url(#paint6_angular_132_266)" stroke-width="1.70856" stroke-linecap="round"/>
</g>
<g style="mix-blend-mode:overlay">
<path d="M855.409 11.5829C1161.5 45.9867 1389.27 176.758 1389.27 332.827C1389.27 515.129 1078.49 662.913 695.134 662.913C311.774 662.913 1 515.129 1 332.827C1 180.342 218.427 52.0068 513.894 14.1049" stroke="url(#paint7_angular_132_266)" stroke-width="1.70856" stroke-linecap="round"/>
</g>
<g style="mix-blend-mode:overlay">
<path d="M490.298 26.6474C206.924 68.2061 1 193.731 1 342.126C1 524.428 311.774 672.213 695.134 672.213C1078.49 672.213 1389.27 524.428 1389.27 342.126C1389.27 188.921 1169.78 60.0931 872.175 22.873" stroke="url(#paint8_angular_132_266)" stroke-width="1.70856" stroke-linecap="round"/>
</g>
<g style="mix-blend-mode:overlay">
<path d="M897.633 39.0935C1182.21 80.3036 1389.27 206.11 1389.27 354.913C1389.27 537.215 1078.49 685 695.134 685C311.774 685 1 537.215 1 354.913C1 210.999 194.674 88.5952 464.84 43.4272" stroke="url(#paint9_angular_132_266)" stroke-width="1.70856" stroke-linecap="round"/>
</g>
<defs>
<radialGradient id="paint0_angular_132_266" cx="0" cy="0" r="1" gradientUnits="userSpaceOnUse" gradientTransform="translate(658.381 318.459) scale(508.767 237.904)">
<stop offset="0.0116666" stop-color="white" stop-opacity="0.17"/>
<stop offset="0.717799" stop-color="white" stop-opacity="0"/>
<stop offset="0.782437" stop-color="white" stop-opacity="0"/>
<stop offset="1" stop-color="white" stop-opacity="0.4"/>
</radialGradient>
<radialGradient id="paint1_angular_132_266" cx="0" cy="0" r="1" gradientUnits="userSpaceOnUse" gradientTransform="translate(658.381 320.059) scale(508.767 237.905)">
<stop offset="0.0116666" stop-color="white" stop-opacity="0.17"/>
<stop offset="0.717799" stop-color="white" stop-opacity="0"/>
<stop offset="0.782437" stop-color="white" stop-opacity="0"/>
<stop offset="1" stop-color="white" stop-opacity="0.4"/>
</radialGradient>
<radialGradient id="paint2_angular_132_266" cx="0" cy="0" r="1" gradientUnits="userSpaceOnUse" gradientTransform="translate(658.381 324.825) scale(508.767 237.015)">
<stop offset="0.0116666" stop-color="white" stop-opacity="0.17"/>
<stop offset="0.717799" stop-color="white" stop-opacity="0"/>
<stop offset="0.782437" stop-color="white" stop-opacity="0"/>
<stop offset="1" stop-color="white" stop-opacity="0.4"/>
</radialGradient>
<radialGradient id="paint3_angular_132_266" cx="0" cy="0" r="1" gradientUnits="userSpaceOnUse" gradientTransform="translate(658.381 331.847) scale(508.767 236.29)">
<stop offset="0.0116666" stop-color="white" stop-opacity="0.17"/>
<stop offset="0.717799" stop-color="white" stop-opacity="0"/>
<stop offset="0.782437" stop-color="white" stop-opacity="0"/>
<stop offset="1" stop-color="white" stop-opacity="0.4"/>
</radialGradient>
<radialGradient id="paint4_angular_132_266" cx="0" cy="0" r="1" gradientUnits="userSpaceOnUse" gradientTransform="translate(658.381 341.721) scale(508.767 235.041)">
<stop offset="0.0116666" stop-color="white" stop-opacity="0.17"/>
<stop offset="0.717799" stop-color="white" stop-opacity="0"/>
<stop offset="0.782437" stop-color="white" stop-opacity="0"/>
<stop offset="1" stop-color="white" stop-opacity="0.4"/>
</radialGradient>
<radialGradient id="paint5_angular_132_266" cx="0" cy="0" r="1" gradientUnits="userSpaceOnUse" gradientTransform="translate(705.148 356.372) scale(739.597 345.843)">
<stop offset="0.0116666" stop-color="white" stop-opacity="0.17"/>
<stop offset="0.717799" stop-color="white" stop-opacity="0"/>
<stop offset="0.782437" stop-color="white" stop-opacity="0"/>
<stop offset="1" stop-color="white" stop-opacity="0.4"/>
</radialGradient>
<radialGradient id="paint6_angular_132_266" cx="0" cy="0" r="1" gradientUnits="userSpaceOnUse" gradientTransform="translate(705.148 358.697) scale(739.597 345.843)">
<stop offset="0.0116666" stop-color="white" stop-opacity="0.17"/>
<stop offset="0.717799" stop-color="white" stop-opacity="0"/>
<stop offset="0.782437" stop-color="white" stop-opacity="0"/>
<stop offset="1" stop-color="white" stop-opacity="0.4"/>
</radialGradient>
<radialGradient id="paint7_angular_132_266" cx="0" cy="0" r="1" gradientUnits="userSpaceOnUse" gradientTransform="translate(705.148 365.626) scale(739.597 344.55)">
<stop offset="0.0116666" stop-color="white" stop-opacity="0.17"/>
<stop offset="0.717799" stop-color="white" stop-opacity="0"/>
<stop offset="0.782437" stop-color="white" stop-opacity="0"/>
<stop offset="1" stop-color="white" stop-opacity="0.4"/>
</radialGradient>
<radialGradient id="paint8_angular_132_266" cx="0" cy="0" r="1" gradientUnits="userSpaceOnUse" gradientTransform="translate(705.148 375.834) scale(739.597 343.497)">
<stop offset="0.0116666" stop-color="white" stop-opacity="0.17"/>
<stop offset="0.717799" stop-color="white" stop-opacity="0"/>
<stop offset="0.782437" stop-color="white" stop-opacity="0"/>
<stop offset="1" stop-color="white" stop-opacity="0.4"/>
</radialGradient>
<radialGradient id="paint9_angular_132_266" cx="0" cy="0" r="1" gradientUnits="userSpaceOnUse" gradientTransform="translate(705.148 390.188) scale(739.597 341.68)">
<stop offset="0.0116666" stop-color="white" stop-opacity="0.17"/>
<stop offset="0.717799" stop-color="white" stop-opacity="0"/>
<stop offset="0.782437" stop-color="white" stop-opacity="0"/>
<stop offset="1" stop-color="white" stop-opacity="0.4"/>
</radialGradient>
</defs>
</svg>
